<svg width="280" height="280" viewBox="0 0 280 280" fill="none" xmlns="http://www.w3.org/2000/svg">
<rect width="280" height="280" fill="#CCFF00"></rect>
<path d="M234.659 93C242.077 93.0008 245.789 101.965 240.544 107.203L208.596 139.111C205.348 142.355 205.339 147.628 208.596 150.877L240.537 182.793C245.78 188.031 242.064 196.993 234.645 196.993L181.527 197C179.319 196.994 177.201 196.122 175.641 194.565L128.471 147.44C126.912 145.88 124.797 145.003 122.586 145.006H51.3258C46.7329 145.006 43.0004 141.288 43 136.688V101.329C43.003 96.7399 46.7247 93.0119 51.3325 93.009H117.709C122.302 93.0149 126.032 96.7307 126.035 101.331V124.924C126.036 132.336 135.008 136.047 140.253 130.809L175.646 95.4526C177.205 93.8931 179.325 93.0188 181.536 93.0157L234.654 93.009V93H234.659Z" fill="black"></path>
</svg>