<svg width="290" height="72" viewBox="0 0 290 72" fill="none" xmlns="http://www.w3.org/2000/svg">
<path d="M175.634 44.9764C175.634 44.2225 175.024 43.6113 174.273 43.6113H173.956C172.518 43.6113 171.053 43.6916 169.562 43.8522C168.124 43.9593 166.82 44.2002 165.648 44.5749C164.53 44.9496 163.598 45.5117 162.852 46.2612C162.106 46.9571 161.734 47.894 161.734 49.0717C161.734 49.8212 161.893 50.4636 162.213 50.9989C162.586 51.5342 163.038 51.9625 163.571 52.2837C164.104 52.6049 164.716 52.8458 165.408 53.0064C166.101 53.1135 166.766 53.167 167.405 53.167C170.068 53.167 172.092 52.4443 173.477 50.9989C174.915 49.5 175.634 47.4925 175.634 44.9764ZM152.505 28.1375C151.997 27.5899 152.019 26.7307 152.586 26.2454C154.693 24.4438 157.077 23.0589 159.737 22.0909C162.879 20.9667 166.074 20.4046 169.323 20.4046C172.678 20.4046 175.5 20.8329 177.79 21.6894C180.134 22.4924 182.024 23.7772 183.462 25.5438C184.9 27.2569 185.939 29.4517 186.578 32.1284C187.27 34.7515 187.778 37.2408 187.778 40.8811V59.7206C187.778 60.4759 187.168 61.0882 186.415 61.0882H176.874C176.121 61.0882 175.511 60.4759 175.511 59.7206V56.8559C175.511 56.8143 175.477 56.7805 175.436 56.7805C175.41 56.7805 175.386 56.7942 175.372 56.8165C174.36 58.4586 172.823 59.7314 170.761 60.6349C168.737 61.545 166.527 62 164.13 62C162.533 62 160.882 61.7859 159.177 61.3576C157.473 60.9293 155.902 60.2334 154.464 59.2698C153.08 58.3062 151.935 57.0214 151.029 55.4154C150.124 53.8094 149.671 51.8287 149.671 49.4732C149.671 46.5824 150.443 44.2537 151.988 42.4871C153.586 40.7205 155.609 39.3554 158.059 38.3918C160.562 37.4282 163.331 36.7858 166.367 36.4646C168.925 36.1939 171.427 36.0373 173.871 35.9947C174.624 35.9816 175.256 35.3638 175.109 34.6229C174.853 33.3257 174.202 32.3336 173.157 31.6466C171.772 30.683 170.068 30.2012 168.045 30.2012C166.181 30.2012 164.37 30.6027 162.612 31.4057C161.365 31.9935 160.246 32.6674 159.255 33.4274C158.661 33.8833 157.808 33.8537 157.298 33.3042L152.505 28.1375Z" fill="#FAFAFA"></path>
<path d="M278.017 44.9764C278.017 44.2225 277.408 43.6113 276.657 43.6113H276.34C274.902 43.6113 273.437 43.6916 271.946 43.8522C270.508 43.9593 269.203 44.2002 268.032 44.5749C266.913 44.9496 265.982 45.5117 265.236 46.2612C264.49 46.9571 264.118 47.894 264.118 49.0717C264.118 49.8212 264.277 50.4636 264.597 50.9989C264.97 51.5342 265.422 51.9625 265.955 52.2837C266.487 52.6049 267.1 52.8458 267.792 53.0064C268.485 53.1135 269.15 53.167 269.789 53.167C272.452 53.167 274.476 52.4443 275.861 50.9989C277.298 49.5 278.017 47.4925 278.017 44.9764ZM254.889 28.1375C254.381 27.5899 254.403 26.7307 254.97 26.2454C257.077 24.4438 259.461 23.0589 262.12 22.0909C265.263 20.9667 268.458 20.4046 271.707 20.4046C275.062 20.4046 277.884 20.8329 280.174 21.6894C282.518 22.4924 284.408 23.7772 285.846 25.5438C287.284 27.2569 288.322 29.4517 288.962 32.1284C289.654 34.7515 290 37.2408 290 40.8811V59.7206C290 60.4759 289.39 61.0882 288.637 61.0882H279.551C278.798 61.0882 278.188 60.4759 278.188 59.7206V57.0441C278.188 56.8985 278.07 56.7805 277.925 56.7805C277.834 56.7805 277.749 56.8284 277.7 56.9059C276.687 58.5049 275.169 59.7479 273.144 60.6349C271.121 61.545 268.911 62 266.514 62C264.916 62 263.265 61.7859 261.561 61.3576C259.857 60.9293 258.286 60.2334 256.848 59.2698C255.463 58.3062 254.318 57.0214 253.413 55.4154C252.508 53.8094 252.055 51.8287 252.055 49.4732C252.055 46.5824 252.827 44.2537 254.372 42.4871C255.969 40.7205 257.993 39.3554 260.443 38.3918C262.946 37.4282 265.715 36.7858 268.751 36.4646C271.309 36.1939 273.81 36.0373 276.255 35.9947C277.008 35.9816 277.64 35.3638 277.493 34.6229C277.237 33.3257 276.586 32.3336 275.541 31.6466C274.156 30.683 272.452 30.2012 270.428 30.2012C268.564 30.2012 266.754 30.6027 264.996 31.4057C263.749 31.9935 262.63 32.6674 261.639 33.4274C261.045 33.8833 260.192 33.8537 259.682 33.3042L254.889 28.1375Z" fill="#FAFAFA"></path>
<path d="M206.859 41.5982V59.7206C206.859 60.4759 206.249 61.0882 205.496 61.0882H195.047C194.294 61.0882 193.684 60.4759 193.684 59.7206V40.7734C193.684 24.7776 206.298 20.9706 217.364 20.9706C217.607 20.9706 218.185 21.0021 218.741 21.0363C219.466 21.0809 220.023 21.6919 220.017 22.4207C219.994 25.0098 220.013 28.9308 220.025 30.9914C220.03 31.7509 219.418 32.3635 218.661 32.384C213.981 32.5108 206.939 33.5621 206.859 41.5982Z" fill="#FAFAFA"></path>
<path d="M240.025 32.3676C239.272 32.3676 238.662 32.98 238.662 33.7353V45.2454C238.662 47.1191 238.829 48.5377 239.521 49.5013C240.267 50.4114 241.572 51.5147 243.436 51.5147H247.294V59.9157C247.294 60.5674 246.837 61.1276 246.198 61.2426C244.625 61.5257 241.709 62 239.841 62C237.178 62 234.941 61.6788 233.131 61.0364C231.32 60.3405 229.856 59.3769 228.737 58.1456C227.672 56.8608 226.9 55.3619 226.42 53.6488C225.941 51.8822 225.486 49.9282 225.486 47.7869V11.8529C225.486 11.0976 226.097 10.4853 226.849 10.4853H237.299C238.052 10.4853 238.662 11.0976 238.662 11.8529V19.6029C238.662 20.3583 239.272 20.9706 240.025 20.9706H246.385C247.138 20.9706 247.748 21.5829 247.748 22.3382V31C247.748 31.7553 247.138 32.3676 246.385 32.3676H240.025Z" fill="#FAFAFA"></path>
<path d="M119.181 59.7951C119.181 60.5504 118.571 61.1627 117.818 61.1627H107.363C106.61 61.1627 106 60.5504 106 59.7951V1.36764C106 0.612313 106.61 0 107.363 0H117.818C118.571 0 119.181 0.612316 119.181 1.36765V33.5229C119.181 34.814 120.8 35.3861 121.606 34.3799L131.941 21.4813C132.2 21.1584 132.591 20.9706 133.004 20.9706H145.14C146.291 20.9706 146.924 22.3143 146.193 23.2067L132.623 39.7706C132.217 40.2661 132.209 40.9781 132.604 41.4829L146.176 58.8541C146.877 59.7517 146.24 61.0656 145.103 61.0656H132.791C132.365 61.0656 131.963 60.8658 131.706 60.5256L121.629 47.2239C120.839 46.1811 119.181 46.7417 119.181 48.0516V59.7951Z" fill="#FAFAFA"></path>
<path d="M73.6474 21.0157C76.4977 21.016 77.9243 24.4669 75.9089 26.4834L63.6325 38.7672C62.3844 40.0158 62.381 42.0459 63.6325 43.2968L75.9063 55.5832C77.9206 57.5998 76.4928 61.05 73.6422 61.05L53.2307 61.0526C52.3822 61.0503 51.5683 60.7148 50.9692 60.1154L32.8434 41.9736C32.2442 41.373 31.4316 41.0352 30.5818 41.0363H3.19928C1.43441 41.0363 0.00016005 39.6053 0 37.8343V24.2221C0.0011621 22.4554 1.43125 21.0203 3.20187 21.0191H28.708C30.4729 21.0214 31.906 22.4519 31.9073 24.2229V33.3055C31.9075 36.1589 35.3552 37.5874 37.3707 35.5712L50.9709 21.9599C51.5701 21.3595 52.3846 21.0229 53.2341 21.0217L73.6456 21.0191V21.0157H73.6474Z" fill="#FAFAFA"></path>
</svg>