<svg width="87" height="39" viewBox="0 0 87 39" fill="none" xmlns="http://www.w3.org/2000/svg">
<g clip-path="url(#clip0_1211_2724)">
<path d="M29.4147 0.0078125L29.4089 38.2061L22.444 38.1943L22.4401 35.2988C21.4534 36.9864 18.9728 37.8408 17.1852 38.3428C14.3913 39.1274 11.2964 38.6787 8.59051 37.7471C7.99811 37.4937 7.42193 37.2026 6.86688 36.875C4.03557 35.1669 1.11285 31.8035 0.458676 28.5078C-0.312913 24.62 -0.275371 20.452 1.87274 16.998C4.00434 13.5709 6.4835 11.5093 10.405 10.5244C12.9623 9.88213 16.6911 10.0359 19.07 11.1738C19.8926 11.5673 21.0372 12.296 21.8356 12.7871C21.8666 8.52494 21.8738 4.26236 21.8571 0L29.4147 0.0078125ZM21.6052 22.7598C20.8307 18.3798 17.693 16.5621 13.5495 16.9521C4.15599 19.1327 6.48935 33.1312 15.8161 31.7832C20.3702 31.0668 22.3582 27.0192 21.6052 22.7598Z" fill="white"></path>
<path d="M72.0971 10.1846C76.9358 9.90621 81.214 11.259 84.1196 15.4053C86.3125 18.5342 87.005 22.6746 86.311 26.4199C85.2233 26.5764 81.1784 26.4946 79.9575 26.4942L66.9994 26.5C67.8297 30.9342 70.8341 32.6706 75.2358 31.9932C76.9513 31.7292 78.2789 30.7375 79.2582 29.3272C79.6581 29.5488 82.4804 30.6983 83.142 30.9903C83.8459 31.3292 84.5757 31.611 85.3237 31.833C85.0218 32.7992 84.5546 33.6067 83.893 34.3701C79.0581 39.949 69.1662 40.1969 63.8246 35.2139C54.9179 26.9044 59.1715 11.0177 72.0971 10.1846ZM78.7963 20.8242C76.9867 17.1263 76.1894 15.8837 71.7133 16.2862C69.2185 16.4999 67.8527 18.6511 67.268 20.8731L74.5356 20.8682C75.9306 20.8621 77.4102 20.8785 78.7963 20.8242Z" fill="white"></path>
<path d="M49.5922 10.4325C50.672 10.5427 56.0367 10.5694 57.1801 10.4569C57.1553 13.7498 57.149 17.0428 57.1613 20.3359L57.1526 38.0291C55.1782 38.1408 52.0814 38.0545 50.0707 38.0125C50.0032 37.2446 50.0501 35.5623 49.8724 34.942C49.6831 34.9714 49.2281 36.0002 48.8923 36.3354C45.5841 39.6377 38.4997 39.4226 35.2307 36.1941C34.0717 35.0495 32.7 32.7367 32.3434 31.1187C31.6311 27.8865 31.8435 24.2274 31.8437 20.8902L31.8672 10.4507C32.4342 10.546 34.0017 10.5121 34.6592 10.5119C36.2434 10.5087 37.8277 10.5157 39.4119 10.5327L39.4115 21.5703C39.411 25.635 38.5292 31.6886 44.2311 31.8582C50.5647 32.0467 49.5871 25.5417 49.5863 21.1858L49.5922 10.4325Z" fill="white"></path>
</g>
<defs>
<clipPath id="clip0_1211_2724">
<rect width="87" height="39" fill="white"></rect>
</clipPath>
</defs>
</svg>