<svg width="161" height="37" viewBox="0 0 161 37" fill="none" xmlns="http://www.w3.org/2000/svg">
<g clip-path="url(#clip0_1207_2697)">
<path fill-rule="evenodd" clip-rule="evenodd" d="M118.392 19.6322H117.904L111.554 1.21947H104.117V1.98074L113.074 27.6938H122.951L131.911 1.98074V1.21947H124.797L118.389 19.6322H118.392Z" fill="white"></path>
<path d="M102.138 1.21947H94.7423V27.691H102.138V1.21947Z" fill="white"></path>
<path fill-rule="evenodd" clip-rule="evenodd" d="M153.879 1.21667H153.884L147.476 19.6349H146.988L140.639 1.21946H133.202V1.98631L142.931 29.9219H133.718V36.0538H142.722C146.567 36.0538 149.562 34.7572 151.015 30.619C151.21 30.0669 160.992 1.98073 160.992 1.98073V1.21388H153.879V1.21667Z" fill="white"></path>
<path fill-rule="evenodd" clip-rule="evenodd" d="M57.0557 0.5C53.6927 0.5 50.55 2.21216 48.5897 5.43013H48.1351V1.24733H41.0857V36.0455H48.5757V24.3225H49.0358C49.086 24.3922 49.1362 24.4647 49.1864 24.5232C50.4496 26.0597 53.3999 28.4021 57.0696 28.4021C63.7481 28.4021 68.3158 22.6298 68.3158 14.4538C68.3158 6.27785 63.5223 0.5 57.0557 0.5ZM54.8193 22.6633C51.3336 22.6633 48.9271 19.9472 48.9271 14.4566C48.9271 8.96599 51.3336 6.24996 54.8193 6.24996C58.3049 6.24996 60.8286 9.02455 60.8286 14.4566C60.8286 19.8887 58.3635 22.6633 54.8193 22.6633Z" fill="white"></path>
<path fill-rule="evenodd" clip-rule="evenodd" d="M86.893 1.21671C83.4212 1.21671 81.1932 1.79672 79.891 5.43018H79.4448V1.21949H68.7229V7.2985H71.1154C71.9046 7.2985 72.2922 7.57735 72.3926 8.22429V13.2771H72.4205V27.6938H79.9105V13.6508C79.9105 10.0145 80.8976 7.78649 84.5339 7.78649H92.3808V1.21671H86.8958H86.893Z" fill="white"></path>
<path d="M14.6224 28.394C22.3215 28.394 28.565 22.1505 28.565 14.4514C28.565 6.75221 22.3215 0.508682 14.6224 0.508682C6.92322 0.508682 0.679688 6.75221 0.679688 14.4514C0.679688 22.1505 6.92322 28.394 14.6224 28.394Z" fill="white"></path>
<path d="M14.6224 36.5C19.8844 36.5 24.1508 35.6021 24.1508 34.5006C24.1508 33.3992 19.8872 32.5013 14.6224 32.5013C9.35766 32.5013 5.09399 33.3992 5.09399 34.5006C5.09399 35.6021 9.35766 36.5 14.6224 36.5Z" fill="white"></path>
</g>
<defs>
<clipPath id="clip0_1207_2697">
<rect width="161" height="37" fill="white"></rect>
</clipPath>
</defs>
</svg>