<svg width="129" height="39" viewBox="0 0 129 39" fill="none" xmlns="http://www.w3.org/2000/svg">
<g clip-path="url(#clip0_1207_2639)">
<path d="M119.378 17.4256C119.378 12.8493 115.652 9.12775 111.071 9.12775H93.6285V39.0001H84.4913V4.56388C84.4913 2.04133 86.5343 5.34058e-05 89.06 5.34058e-05H111.071C120.707 5.34058e-05 128.514 7.80005 128.514 17.4256V39.0001H119.378V17.4256Z" fill="white"></path>
<path d="M79.9229 5.34058e-05H70.786V39.0001H79.9229V5.34058e-05Z" fill="white"></path>
<path d="M53.3429 39C60.4531 39 66.2176 33.2413 66.2176 26.1383V12.8617C66.2176 5.75872 60.4531 0 53.3429 0H17.4432C7.80789 0 0 7.8 0 17.4255V39H9.13693V17.4255C9.13693 12.8492 12.8622 9.1277 17.4432 9.1277H53.3429C55.4028 9.1277 57.0807 10.8038 57.0807 12.8617V26.1383C57.0807 28.1962 55.4028 29.8723 53.3429 29.8723H36.7303C34.6704 29.8723 32.9925 28.1962 32.9925 26.1383C32.9925 24.0805 34.6704 22.4042 36.7303 22.4042H52.9276V13.2766H36.7303C29.6202 13.2766 23.8556 19.0353 23.8556 26.1383C23.8556 33.2413 29.6202 39 36.7303 39H53.3429Z" fill="white"></path>
</g>
<defs>
<clipPath id="clip0_1207_2639">
<rect width="129" height="39" fill="white"></rect>
</clipPath>
</defs>
</svg>