<svg width="223" height="39" viewBox="0 0 223 39" fill="none" xmlns="http://www.w3.org/2000/svg">
<g clip-path="url(#clip0_1207_2667)">
<path fill-rule="evenodd" clip-rule="evenodd" d="M7.09077 24.2296C7.09077 24.5603 7.35918 24.8286 7.69015 24.8286H13.5823C13.9133 24.8286 14.1816 24.5603 14.1816 24.2296V21.2857H17.1277C17.4586 21.2857 17.7271 21.0174 17.7271 20.6867V18.3417C17.7271 18.0109 17.4586 17.7428 17.1277 17.7428H7.69015C7.35918 17.7428 7.09077 18.0109 7.09077 18.3417V24.2296ZM7.09077 11.2356C7.09077 10.9049 6.82238 10.6367 6.49141 10.6367H0.599309C0.268335 10.6367 -6.10352e-05 10.9049 -6.10352e-05 11.2356V17.1236C-6.10352e-05 17.4543 0.268335 17.7224 0.599309 17.7224H2.94599C3.27696 17.7224 3.54536 17.4543 3.54536 17.1236V14.1795H6.49141C6.82238 14.1795 7.09077 13.9114 7.09077 13.5807V11.2356ZM10.6362 32.4929C10.6362 32.1622 10.3678 31.894 10.0368 31.894H7.69015C7.35918 31.894 7.09077 32.1622 7.09077 32.4929V34.8379C7.09077 35.1687 7.35918 35.4369 7.69015 35.4369H10.0368C10.3678 35.4369 10.6362 35.1687 10.6362 34.8379V32.4929ZM52.5819 10.6367H46.6897C46.3589 10.6367 46.0904 10.9049 46.0904 11.2356V13.5807C46.0904 13.9114 46.3589 14.1795 46.6897 14.1795H49.6358V17.1236C49.6358 17.4543 49.9042 17.7224 50.2352 17.7224H52.5819C52.9129 17.7224 53.1813 17.4543 53.1813 17.1236V11.2356C53.1813 10.9049 52.9129 10.6367 52.5819 10.6367ZM45.491 17.7224H36.0535C35.7225 17.7224 35.4541 17.9907 35.4541 18.3215V20.6664C35.4541 20.9971 35.7225 21.2653 36.0535 21.2653H38.9996V24.2093C38.9996 24.54 39.2679 24.8082 39.599 24.8082H45.491C45.822 24.8082 46.0904 24.54 46.0904 24.2093V18.3215C46.0904 17.9907 45.822 17.7224 45.491 17.7224ZM41.9456 35.4572H38.9996V32.5133C38.9996 32.1825 38.7312 31.9143 38.4002 31.9143H35.4541V25.4275C35.4541 25.0967 35.1858 24.8286 34.8547 24.8286H31.9088V18.3417C31.9088 18.0109 31.6403 17.7428 31.3094 17.7428H21.8718C21.5409 17.7428 21.2724 18.0109 21.2724 18.3417V24.8286H18.3265C17.9953 24.8286 17.7271 25.0967 17.7271 25.4275V31.9143H14.781C14.45 31.9143 14.1816 32.1825 14.1816 32.5133V35.4572H11.2356C10.9046 35.4572 10.6362 35.7254 10.6362 36.0562V38.4012C10.6362 38.7319 10.9046 39 11.2356 39H17.1277C17.4586 39 17.7271 38.7319 17.7271 38.4012V35.4572H20.673C21.0041 35.4572 21.2724 35.189 21.2724 34.8583V28.3714H31.9088V34.8583C31.9088 35.189 32.1772 35.4572 32.508 35.4572H35.4541V38.4012C35.4541 38.7319 35.7225 39 36.0535 39H41.9456C42.2765 39 42.545 38.7319 42.545 38.4012V36.0562C42.545 35.7254 42.2765 35.4572 41.9456 35.4572ZM45.491 31.894H43.1444C42.8134 31.894 42.545 32.1622 42.545 32.4929V34.8379C42.545 35.1687 42.8134 35.4369 43.1444 35.4369H45.491C45.822 35.4369 46.0904 35.1687 46.0904 34.8379V32.4929C46.0904 32.1622 45.822 31.894 45.491 31.894Z" fill="white"></path>
<path fill-rule="evenodd" clip-rule="evenodd" d="M14.7803 10.6363H38.3996C38.7305 10.6363 38.9989 10.3679 38.9989 10.0369V7.69026C38.9989 7.35918 38.7305 7.09089 38.3996 7.09089H35.4535V4.14483C35.4535 3.81387 35.1852 3.54546 34.8542 3.54546H31.9081V0.599415C31.9081 0.268442 31.6397 4.57764e-05 31.3087 4.57764e-05H21.8712C21.5402 4.57764e-05 21.2718 0.268442 21.2718 0.599415V3.54546H18.3258C17.9948 3.54546 17.7264 3.81387 17.7264 4.14483V7.09089H14.7803C14.4494 7.09089 14.1809 7.35918 14.1809 7.69026V10.0369C14.1809 10.3679 14.4494 10.6363 14.7803 10.6363Z" fill="white"></path>
<path fill-rule="evenodd" clip-rule="evenodd" d="M138.883 12.3559C136.09 12.3559 133.567 13.5048 131.792 15.3471C130.058 13.4977 127.588 12.3416 124.85 12.3416C123.314 12.3416 121.747 12.9041 120.538 13.7168V13.4475C120.538 13.059 120.215 12.7635 119.84 12.7635H115.946C115.573 12.7635 115.248 13.059 115.248 13.4475V32.8493C115.248 33.2378 115.571 33.5333 115.946 33.5333H119.85C120.223 33.5333 120.547 33.2378 120.547 32.8493V21.8327C120.547 19.4588 122.475 17.5376 124.85 17.5376C127.227 17.5376 129.153 19.4612 129.153 21.8327V32.8493C129.153 33.2378 129.475 33.5333 129.85 33.5333H133.663C133.673 33.5333 133.68 33.5333 133.685 33.5333H133.771C134.143 33.5333 134.468 33.2378 134.468 32.8493V21.8398C134.468 19.4778 136.437 17.5471 138.883 17.5471C141.329 17.5471 143.298 19.4778 143.298 21.8398V32.847C143.298 33.2355 143.62 33.5309 143.996 33.5309H147.913C148.289 33.5309 148.611 33.2355 148.611 32.847V21.8398C148.609 16.5938 144.246 12.3559 138.883 12.3559ZM168.09 22.7765C166.603 21.8732 164.694 21.4395 163.03 21.0628L162.997 21.0557C161.789 20.7816 160.727 20.5386 159.963 20.1809C159.205 19.8282 158.862 19.423 158.862 18.8652C158.862 18.3838 159.043 17.9572 159.474 17.621C159.915 17.2754 160.647 17.0084 161.777 16.9418C163.702 16.9418 165.193 16.9871 166.202 17.0323C166.707 17.0539 167.092 17.0776 167.348 17.0944C167.477 17.1039 167.574 17.1086 167.64 17.1134C167.673 17.1157 167.696 17.1181 167.711 17.1181L167.727 17.1205H167.733L167.749 17.1229H167.766C168.065 17.1229 168.337 17.0657 168.523 16.8727C168.687 16.701 168.722 16.4818 168.736 16.3745C168.736 16.3674 168.738 16.3603 168.738 16.3555C168.746 16.3101 168.751 16.2767 168.757 16.2458L168.767 16.2053V13.8146C168.767 13.5238 168.747 13.2568 168.636 13.0519C168.497 12.7969 168.266 12.7157 168.079 12.6752L168.061 12.6729L168.045 12.6705H168.038L168.019 12.6681C168.003 12.6657 167.979 12.6634 167.948 12.661C167.882 12.6539 167.788 12.6444 167.662 12.6323C167.404 12.6086 167.023 12.5776 166.506 12.5466C165.475 12.4845 163.908 12.4227 161.762 12.4227H161.755H161.747C159.001 12.5252 156.917 13.2878 155.516 14.4938C154.109 15.7024 153.415 17.3327 153.415 19.0964C153.415 20.2572 153.683 21.2083 154.156 21.9924C154.627 22.7741 155.288 23.3678 156.043 23.8325C157.532 24.7453 159.437 25.1864 161.098 25.5701L161.132 25.5772C162.342 25.8561 163.406 26.1039 164.171 26.4663C164.926 26.8238 165.277 27.2362 165.277 27.8106C165.277 28.2897 165.054 28.7163 164.517 29.0428C163.957 29.3813 163.052 29.6077 161.72 29.6077C160.205 29.6077 158.552 29.4457 157.271 29.2813C156.631 29.2002 156.089 29.1167 155.704 29.0548C155.512 29.0238 155.36 28.9975 155.256 28.9809C155.229 28.9762 155.204 28.9714 155.184 28.969C155.167 28.9665 155.149 28.9641 155.138 28.9617L155.109 28.957L155.1 28.9546L155.067 28.9475H155.032C154.76 28.9475 154.503 28.9975 154.32 29.1811C154.16 29.3408 154.125 29.553 154.111 29.6506C154.109 29.6577 154.109 29.665 154.109 29.6698C154.098 29.7221 154.09 29.7555 154.083 29.7889L154.074 29.8271L153.924 32.5251V32.5347C153.924 32.711 153.95 32.9209 154.047 33.1092C154.143 33.3094 154.32 33.488 154.59 33.5572L154.6 33.5596L154.611 33.5619L154.621 33.5001C154.61 33.5619 154.611 33.5619 154.611 33.5619L154.62 33.5643C154.623 33.5667 154.634 33.5667 154.645 33.569C154.667 33.574 154.7 33.5787 154.744 33.5882C154.829 33.6048 154.954 33.6263 155.118 33.6526C155.448 33.705 155.928 33.7742 156.55 33.8457C157.788 33.9862 159.574 34.1245 161.771 34.1245H161.789C162.059 34.1269 164.255 34.1435 166.397 33.3402C167.472 32.9375 168.556 32.3201 169.373 31.3716C170.198 30.4158 170.731 29.1406 170.731 27.4674C170.731 26.3185 170.461 25.3747 169.988 24.5977C169.51 23.8205 168.848 23.2342 168.09 22.7765ZM212.118 12.7754C209.937 12.7754 207.899 13.388 206.187 14.4486V5.55916C206.187 5.17065 205.864 4.87503 205.488 4.87503H201.58C201.207 4.87503 200.882 5.17065 200.882 5.55916V32.8541C200.882 33.2426 201.205 33.5382 201.58 33.5382H205.488C205.862 33.5382 206.187 33.2426 206.187 32.8541V31.9459C207.802 33.2044 209.943 34.1221 212.118 34.1221C218.2 34.1221 223.151 29.355 223.151 23.4488C223.151 17.5424 218.2 12.7754 212.118 12.7754ZM212.118 28.969C208.965 28.969 206.406 26.4973 206.406 23.4488C206.406 20.4002 208.963 17.9285 212.118 17.9285C215.271 17.9285 217.83 20.4002 217.83 23.4488C217.83 26.4973 215.275 28.969 212.118 28.969ZM194.87 12.7754H190.952C190.576 12.7754 190.253 13.071 190.253 13.4595V24.7429C190.253 27.0716 188.289 28.9809 185.839 28.9809C185.828 28.9809 185.817 28.9809 185.806 28.9809C185.793 28.9809 185.784 28.9809 185.771 28.9809C183.32 28.9809 181.357 27.0716 181.357 24.7429V13.4595C181.357 13.071 181.034 12.7754 180.66 12.7754H176.742C176.366 12.7754 176.043 13.071 176.043 13.4595V24.7429C176.043 29.9342 180.412 34.1198 185.771 34.1198C185.784 34.1198 185.793 34.1198 185.806 34.1198C185.817 34.1198 185.828 34.1198 185.839 34.1198C191.198 34.1198 195.567 29.9342 195.567 24.7429V13.4595C195.567 13.071 195.244 12.7754 194.87 12.7754ZM82.4796 22.7765C80.9913 21.8732 79.0825 21.4395 77.4197 21.0628L77.3861 21.0557C76.1774 20.7816 75.1166 20.5386 74.3522 20.1809C73.5949 19.8282 73.2509 19.423 73.2509 18.8652C73.2509 18.3838 73.4325 17.9572 73.8624 17.621C74.3044 17.2754 75.0354 17.0084 76.1653 16.9418C78.0909 16.9418 79.5818 16.9871 80.5898 17.0323C81.0964 17.0539 81.481 17.0776 81.7365 17.0944C81.8655 17.1039 81.9635 17.1086 82.0281 17.1134C82.0615 17.1157 82.0854 17.1181 82.0997 17.1181L82.1164 17.1205H82.1212L82.138 17.1229H82.1548C82.4533 17.1229 82.7256 17.0657 82.9121 16.8727C83.0769 16.701 83.1102 16.4818 83.1247 16.3745C83.1247 16.3674 83.127 16.3603 83.127 16.3555C83.1341 16.3101 83.1389 16.2767 83.1462 16.2458L83.1557 16.2053V13.8146C83.1557 13.5238 83.1365 13.2568 83.0243 13.0519C82.8858 12.7969 82.654 12.7157 82.4677 12.6752L82.4509 12.6729L82.4341 12.6705H82.427L82.4079 12.6681C82.3913 12.6657 82.3674 12.6634 82.3362 12.661C82.2717 12.6539 82.1761 12.6444 82.0495 12.6323C81.794 12.6086 81.4117 12.5776 80.8956 12.5466C79.8637 12.4845 78.2964 12.4227 76.1511 12.4227H76.144H76.1367C73.3894 12.5252 71.3062 13.2878 69.9038 14.4938C68.4991 15.7024 67.8062 17.3327 67.8062 19.0964C67.8062 20.2572 68.0739 21.2083 68.5469 21.9924C69.0175 22.7741 69.6792 23.3678 70.4341 23.8325C71.9226 24.7453 73.829 25.1864 75.4894 25.5701L75.5228 25.5772C76.734 25.8561 77.7971 26.1039 78.5617 26.4663C79.3166 26.8238 79.6677 27.2362 79.6677 27.8106C79.6677 28.2897 79.4455 28.7163 78.908 29.0428C78.3489 29.3813 77.4436 29.6077 76.1104 29.6077C74.5958 29.6077 72.9427 29.4457 71.6622 29.2813C71.0219 29.2002 70.4796 29.1167 70.0949 29.0548C69.9038 29.0238 69.7509 28.9975 69.6482 28.9809C69.6195 28.9762 69.5956 28.9714 69.5741 28.969C69.5575 28.9665 69.5407 28.9641 69.5288 28.9617L69.5 28.957L69.4905 28.9546L69.4571 28.9475H69.4212C69.1489 28.9475 68.8909 28.9975 68.7093 29.1811C68.5493 29.3408 68.5135 29.553 68.4991 29.6506C68.4967 29.6577 68.4967 29.665 68.4967 29.6698C68.4872 29.7221 68.4799 29.7555 68.4728 29.7889L68.4633 29.8271L68.308 32.5227V32.5324C68.308 32.7086 68.3343 32.9185 68.4298 33.1066C68.5277 33.307 68.7046 33.4856 68.9745 33.5548L68.9841 33.5572L68.9936 33.5596L69.0055 33.4977C68.9936 33.5596 68.9936 33.5596 68.9936 33.5596H68.996L69.0031 33.5619C69.008 33.5643 69.0175 33.5643 69.0294 33.5667C69.0509 33.5714 69.0845 33.5763 69.1274 33.5858C69.2133 33.6024 69.3376 33.624 69.5026 33.6501C69.8321 33.7026 70.3124 33.7718 70.9336 33.8431C72.171 33.9838 73.958 34.1221 76.1559 34.1221H76.1726C76.4425 34.1245 78.638 34.1411 80.781 33.3378C81.856 32.9351 82.9407 32.3178 83.7577 31.3692C84.582 30.4134 85.1146 29.1382 85.1146 27.465C85.1146 26.3161 84.8447 25.3723 84.3717 24.5951C83.8986 23.8205 83.2369 23.2342 82.4796 22.7765ZM109.243 12.7754H105.325C104.95 12.7754 104.627 13.071 104.627 13.4595V24.7429C104.627 27.0716 102.664 28.9809 100.212 28.9809C100.2 28.9809 100.191 28.9809 100.179 28.9809C100.167 28.9809 100.157 28.9809 100.145 28.9809C97.6944 28.9809 95.7305 27.0716 95.7305 24.7429V13.4595C95.7305 13.071 95.4081 12.7754 95.0329 12.7754H91.115C90.74 12.7754 90.4174 13.071 90.4174 13.4595V24.7429C90.4174 29.9342 94.7845 34.1198 100.145 34.1198C100.157 34.1198 100.167 34.1198 100.179 34.1198C100.191 34.1198 100.2 34.1198 100.212 34.1198C105.571 34.1198 109.94 29.9342 109.94 24.7429V13.4595C109.94 13.071 109.618 12.7754 109.243 12.7754Z" fill="white"></path>
</g>
<defs>
<clipPath id="clip0_1207_2667">
<rect width="223" height="39" fill="white"></rect>
</clipPath>
</defs>
</svg>