<svg width="176" height="39" viewBox="0 0 176 39" fill="none" xmlns="http://www.w3.org/2000/svg">
<g clip-path="url(#clip0_1207_2691)">
<path d="M13.0492 38.3946H2.68066L12.2906 9.13193H0L2.68066 0.554977H36.9223L34.2416 9.13193H22.6086L13.0492 38.3946Z" fill="white"></path>
<path d="M51.6339 38.3946H27.0528L39.3939 0.554977H63.8739L61.5473 7.76972H47.3348L44.7553 15.8926H58.5126L56.186 23.0064H42.3781L39.7986 31.1798H53.91L51.6339 38.3946Z" fill="white"></path>
<path d="M62.7596 38.3946H54.5153L66.9071 0.554977H80.6644L80.2092 20.9884L93.6125 0.554977H108.685L96.3439 38.3946H86.0259L94.2192 12.9664H94.0678L77.2251 38.3946H71.1051L71.3579 12.6636H71.2568L62.7596 38.3946Z" fill="white"></path>
<path d="M120.291 7.56791L116.295 19.7775H117.408C119.936 19.7775 122.044 19.1888 123.73 18.0116C125.416 16.8008 126.512 15.0854 127.018 12.8654C127.456 10.9482 127.22 9.58603 126.31 8.77881C125.399 7.97154 123.882 7.56791 121.757 7.56791H120.291ZM110.276 38.3946H99.9079L112.249 0.554977H124.842C127.743 0.554977 130.237 1.02587 132.328 1.96766C134.453 2.87581 136.004 4.18758 136.981 5.90297C137.993 7.58473 138.33 9.55237 137.993 11.806C137.555 14.7658 136.408 17.3725 134.554 19.6262C132.699 21.8797 130.288 23.6287 127.321 24.8732C124.387 26.084 121.1 26.6895 117.458 26.6895H114.069L110.276 38.3946Z" fill="white"></path>
<path d="M162.707 35.9728C159.267 37.9909 155.609 39 151.731 39H151.631C148.191 39 145.291 38.2432 142.931 36.7296C140.605 35.1824 138.935 33.097 137.924 30.4735C136.946 27.8499 136.71 24.9742 137.216 21.846C137.856 17.9107 139.323 14.2782 141.616 10.9482C143.909 7.61837 146.775 4.96119 150.214 2.97672C153.654 0.992236 157.329 0 161.241 0H161.341C164.915 0 167.866 0.756792 170.193 2.27038C172.553 3.78396 174.188 5.85253 175.099 8.47606C176.043 11.066 176.245 13.9754 175.706 17.2044C175.065 21.0051 173.599 24.5873 171.306 27.9509C169.012 31.2807 166.147 33.9548 162.707 35.9728ZM148.393 29.4644C149.304 31.1798 150.889 32.0375 153.148 32.0375H153.249C155.103 32.0375 156.823 31.348 158.408 29.969C160.026 28.5563 161.392 26.6727 162.505 24.3183C163.651 21.9638 164.494 19.3403 165.034 16.4476C165.54 13.6223 165.337 11.3519 164.426 9.63648C163.517 7.88745 161.949 7.01294 159.723 7.01294H159.622C157.902 7.01294 156.233 7.71928 154.614 9.13193C153.029 10.5447 151.647 12.445 150.467 14.8331C149.287 17.2212 148.427 19.8112 147.887 22.6029C147.348 25.4282 147.517 27.7154 148.393 29.4644Z" fill="white"></path>
</g>
<defs>
<clipPath id="clip0_1207_2691">
<rect width="176" height="39" fill="white"></rect>
</clipPath>
</defs>
</svg>