<svg width="122" height="39" viewBox="0 0 122 39" fill="none" xmlns="http://www.w3.org/2000/svg">
<g clip-path="url(#clip0_1207_2698)">
<path d="M52.8881 38.3499H42.9332L49.1549 0.67323H59.1109L52.8881 38.3499ZM34.5585 0.67323L25.0679 26.5876L23.9449 21.0072L23.9459 21.0092L20.5962 4.06559C20.5962 4.06559 20.1912 0.67323 15.8739 0.67323H0.184105L0 1.31119C0 1.31119 4.79797 2.29483 10.4132 5.61764L19.062 38.351H29.4342L45.2724 0.67323H34.5585V0.67323ZM112.859 38.3499H122L114.03 0.672222H106.028C102.333 0.672222 101.432 3.48004 101.432 3.48004L86.5854 38.3499H96.9628L99.0381 32.7535H111.693L112.859 38.3499ZM101.905 25.0224L107.136 10.9229L110.078 25.0224H101.905ZM87.3638 9.73362L88.7845 1.64276C88.7845 1.64276 84.4007 0 79.8308 0C74.8907 0 63.1591 2.12753 63.1591 12.4729C63.1591 22.2065 76.9281 22.3275 76.9281 27.4402C76.9281 32.5529 64.5778 31.6368 60.5019 28.4127L59.0219 36.8725C59.0219 36.8725 63.467 39 70.2584 39C77.0519 39 87.3004 35.5341 87.3004 26.1008C87.3004 16.3047 73.4076 15.3926 73.4076 11.1335C73.4087 6.8734 83.1038 7.42065 87.3638 9.73362V9.73362Z" fill="#ccff00"></path>
</g>
<defs>
<clipPath id="clip0_1207_2698">
<rect width="122" height="39" fill="#ccff00"></rect>
</clipPath>
</defs>
</svg>